<?xml version="1.0" encoding="UTF-8" standalone="no"?>
<!-- Created with Inkscape (http://www.inkscape.org/) -->

<svg
   width="210mm"
   height="297mm"
   viewBox="0 0 210 297"
   version="1.1"
   id="svg5"
   xml:space="preserve"
   inkscape:version="1.2.2 (732a01da63, 2022-12-09)"
   sodipodi:docname="drawing.svg"
   inkscape:export-filename="drawing.png"
   inkscape:export-xdpi="300"
   inkscape:export-ydpi="300"
   xmlns:inkscape="http://www.inkscape.org/namespaces/inkscape"
   xmlns:sodipodi="http://sodipodi.sourceforge.net/DTD/sodipodi-0.dtd"
   xmlns="http://www.w3.org/2000/svg"
   xmlns:svg="http://www.w3.org/2000/svg"><sodipodi:namedview
     id="namedview7"
     pagecolor="#ffffff"
     bordercolor="#000000"
     borderopacity="0.25"
     inkscape:showpageshadow="2"
     inkscape:pageopacity="0.0"
     inkscape:pagecheckerboard="0"
     inkscape:deskcolor="#d1d1d1"
     inkscape:document-units="mm"
     showgrid="false"
     inkscape:lockguides="false"
     showguides="true"
     inkscape:zoom="1.4324916"
     inkscape:cx="487.26291"
     inkscape:cy="479.23494"
     inkscape:window-width="1920"
     inkscape:window-height="991"
     inkscape:window-x="-9"
     inkscape:window-y="-9"
     inkscape:window-maximized="1"
     inkscape:current-layer="layer1" /><defs
     id="defs2"><clipPath
       clipPathUnits="userSpaceOnUse"
       id="clipPath358"><g
         id="g362"><g
           inkscape:label="Clip"
           id="use360"
           clip-path="url(#clipPath358)"><path
             style="fill:#000000;stroke-width:0.211667"
             d="m 106.82521,165.58749 c -3.99372,-0.3468 -9.59362,-1.6609 -13.38938,-3.14203 -15.28545,-5.96443 -26.81198,-18.71925 -30.95625,-34.255 -1.18005,-4.42368 -1.489,-6.63009 -1.62473,-11.60316 -0.13757,-5.04099 0.0678,-7.77654 0.88686,-11.81512 2.65333,-13.082327 10.48846,-24.701373 21.7106,-32.195587 8.27,-5.522758 18.00448,-8.444413 28.1354,-8.444413 5.70469,0 10.64098,0.79396 15.98083,2.570376 16.53312,5.500098 29.1324,19.086227 33.34147,35.952954 1.11119,4.45283 1.37073,6.80333 1.36723,12.3825 -0.003,5.44068 -0.23083,7.53282 -1.29718,11.93344 -4.96166,20.47573 -22.48549,35.99735 -43.40335,38.44424 -2.42514,0.28369 -8.36929,0.37867 -10.7515,0.1718 z m 9.54115,-0.92697 c 20.86262,-2.03013 38.43105,-17.08374 43.58477,-37.34584 1.14967,-4.51996 1.47127,-7.22663 1.47127,-12.3825 0,-3.3645 -0.10181,-5.21297 -0.39053,-7.09083 -2.20565,-14.345614 -9.95223,-26.535889 -21.92749,-34.505828 -5.6707,-3.774041 -11.77353,-6.267176 -18.33016,-7.488264 -22.24083,-4.142065 -44.25254,7.009512 -54.20548,27.461588 -6.62219,13.607794 -6.5693,29.837984 0.14186,43.530834 7.73377,15.7793 23.20074,26.36935 40.74961,27.90078 1.96847,0.17179 6.7614,0.12876 8.90615,-0.0799 z m -8.80032,-1.05939 c -17.21473,-1.5185 -32.25423,-11.79547 -39.78269,-27.18478 -3.39797,-6.94598 -4.92381,-13.50422 -4.94923,-21.2725 -0.023,-7.01745 1.00019,-12.34724 3.59606,-18.732504 6.23567,-15.338348 20.32285,-26.690392 36.64461,-29.529756 15.56499,-2.707714 31.07441,2.073351 42.4099,13.073629 5.98678,5.809743 10.05695,12.340737 12.56409,20.160291 1.57207,4.90317 2.26006,9.36265 2.26953,14.71084 0.009,5.12165 -0.50773,8.87866 -1.89254,13.75833 -4.58151,16.14395 -18.12455,29.31683 -34.51042,33.56717 -5.00179,1.29741 -11.52028,1.87525 -16.34931,1.44928 z m 11.53584,-2.6091 c 7.93375,-1.45718 14.38896,-4.23715 20.48008,-8.81985 7.75487,-5.83442 13.47018,-13.87538 16.42919,-23.11444 2.88098,-8.99543 2.88098,-19.25569 0,-28.25112 C 151.25879,85.968093 139.4064,74.45034 124.39354,70.081714 117.37,68.037916 108.86301,67.788209 101.42771,69.407594 87.97514,72.337519 76.10338,81.631267 69.79009,94.174946 c -2.09539,4.16325 -3.83364,9.861544 -4.47592,14.672864 -0.41159,3.08316 -0.45848,8.51044 -0.0992,11.48187 2.07203,17.13734 13.32798,31.69341 29.43942,38.07073 2.91774,1.15492 6.59665,2.1367 10.05416,2.68314 3.26093,0.51536 11.36984,0.46381 14.39334,-0.0915 z m -9.73667,-1.6433 c -10.87867,-0.44742 -20.81204,-4.74778 -28.75669,-12.44935 -5.77118,-5.5946 -9.61458,-11.98924 -11.89828,-19.79637 -1.14728,-3.9221 -0.77117,-5.9749 1.26403,-6.89918 0.77889,-0.35373 1.47218,-0.39449 6.78036,-0.39867 7.75483,-0.006 7.79336,0.0104 9.12298,3.91119 3.15868,9.26679 11.36866,16.29902 20.99453,17.98279 3.98725,0.69746 9.46775,0.30661 13.18224,-0.94012 8.16061,-2.73901 14.67759,-9.29792 17.35433,-17.46601 0.60635,-1.85028 1.08509,-2.5417 2.12839,-3.07396 0.75992,-0.38768 1.26092,-0.41854 6.79452,-0.41854 5.63275,0 6.02647,0.0254 6.89059,0.44367 1.13736,0.55059 1.96883,1.85857 1.96883,3.09717 0,2.91873 -2.90612,10.45514 -5.87604,15.2383 -7.02519,11.31428 -19.54408,19.22924 -32.54146,20.57404 -3.20123,0.33122 -3.74739,0.3456 -7.40833,0.19504 z m 0.62433,-6.36947 c 0.0823,-1.19327 0.23133,-2.83451 0.33109,-3.64721 0.19938,-1.62426 0.11291,-1.79436 -0.915,-1.79996 -0.36521,-0.002 -0.54112,0.0832 -0.45602,0.22094 0.0762,0.1233 0.0655,0.90911 -0.0239,1.74625 l -0.16242,1.52207 -0.40026,-1.37584 c -0.64537,-2.21831 -0.71282,-2.32833 -1.42748,-2.32833 -0.63683,0 -0.63956,0.005 -0.645,1.21708 -0.006,1.41746 -0.34405,5.08259 -0.54035,5.86472 -0.12843,0.51167 -0.0918,0.5382 0.74254,0.5382 0.78115,0 0.87313,-0.0524 0.83669,-0.47625 -0.0225,-0.26194 -0.0232,-1.04775 -0.001,-1.74625 0.0466,-1.50322 0.23152,-1.29225 0.78857,0.89958 0.38063,1.49764 0.40607,1.53459 1.0567,1.53459 h 0.66668 l 0.14971,-2.16959 z m 6.09609,1.96025 c 0.76475,-0.002 0.79375,-0.0292 0.79375,-0.73911 v -0.73679 l -0.9525,0.13056 -0.9525,0.13055 -0.0318,-0.7696 c -0.0175,-0.42328 -0.0413,-0.88867 -0.0529,-1.03419 -0.0124,-0.15445 0.22112,-0.26111 0.56092,-0.25624 0.51643,0.007 0.58208,-0.0687 0.58208,-0.6745 0,-0.61568 -0.0677,-0.68938 -0.68792,-0.74918 -0.60318,-0.0582 -0.69602,-0.15017 -0.7537,-0.74698 -0.0559,-0.57878 0.0153,-0.701 0.47578,-0.81658 0.29786,-0.0748 0.68465,-0.081 0.85953,-0.0139 0.2461,0.0944 0.31798,-0.048 0.31798,-0.63023 v -0.75225 l -1.64042,0.14964 c -0.90223,0.0823 -1.6626,0.16817 -1.68971,0.19082 -0.0271,0.0227 0.0305,0.32064 0.12803,0.66218 0.0975,0.34154 0.30572,2.03525 0.46264,3.76379 l 0.28531,3.14282 0.75082,-0.12424 c 0.41295,-0.0683 1.10801,-0.12528 1.54458,-0.12656 z m -13.52428,-3.3617 c 0.33247,-1.3791 0.77798,-3.01996 0.99004,-3.64636 0.21206,-0.6264 0.36867,-1.15525 0.34802,-1.17521 -0.0206,-0.02 -0.39472,-0.10302 -0.83129,-0.18457 -0.71291,-0.13317 -0.79375,-0.10287 -0.79375,0.29756 0,0.64088 -1.48569,6.21879 -1.73952,6.53086 -0.14856,0.18266 -0.12575,0.28983 0.0753,0.35365 0.15864,0.0504 0.4313,0.13922 0.60593,0.19746 0.17462,0.0582 0.41275,0.11223 0.52916,0.11998 0.11642,0.008 0.48368,-1.11427 0.81615,-2.49337 z m -5.18929,0.49191 c 0.32449,-0.71216 0.34999,-0.66361 -0.49519,-0.94254 -0.40745,-0.13447 -0.74083,-0.36621 -0.74083,-0.51497 0,-0.32836 1.8017,-4.48168 2.22321,-5.12498 0.28387,-0.43324 0.25674,-0.47706 -0.47628,-0.76943 l -0.7773,-0.31002 -0.35421,0.97845 c -0.53584,1.48016 -1.85862,4.48813 -2.31806,5.2712 l -0.40741,0.69441 0.47294,0.1855 c 0.26012,0.10203 0.90157,0.37813 1.42544,0.61356 1.21811,0.54741 1.1598,0.55068 1.44769,-0.0812 z m 29.54814,-0.23659 c -0.007,-0.0972 -0.3235,-0.83217 -0.70258,-1.63321 -0.69956,-1.47826 -0.68934,-1.67241 0.10052,-1.91014 0.38313,-0.11531 0.51895,0.0458 1.00602,1.1933 0.30971,0.72963 0.56282,1.44566 0.56249,1.59118 -8.5e-4,0.32468 0.17165,0.33009 1.02614,0.0322 0.75089,-0.26176 0.7862,-0.3379 0.3753,-0.80929 -0.395,-0.45317 -2.67205,-5.58159 -2.67205,-6.01807 0,-0.42335 0.0173,-0.42266 -0.90879,-0.0357 l -0.74883,0.31288 0.63985,1.18136 c 0.35192,0.64975 0.59359,1.22762 0.53705,1.28417 -0.0566,0.0565 -0.37277,0.12232 -0.70272,0.14617 -0.53731,0.0388 -0.64584,-0.0703 -1.04022,-1.04602 l -0.44032,-1.0894 -0.6973,0.29319 c -0.38351,0.16126 -0.66174,0.36574 -0.61829,0.4544 1.00287,2.0461 2.16883,4.58667 2.54293,5.54091 l 0.48007,1.22457 0.63704,-0.26785 c 0.35037,-0.14732 0.63103,-0.34741 0.62369,-0.44464 z m -35.95903,-3.11866 c 0.23247,-0.16282 0.75373,-0.78177 1.15835,-1.37542 0.40463,-0.59366 0.80712,-1.07957 0.89444,-1.07979 0.39248,-0.001 0.0922,-0.45371 -0.62359,-0.9401 l -0.78234,-0.53161 -0.36357,0.55424 c -0.19997,0.30483 -0.31693,0.6758 -0.25991,0.82438 0.13187,0.34368 -0.52576,1.36268 -0.87944,1.36268 -0.14698,0 -0.38014,-0.13604 -0.51813,-0.30232 -0.20214,-0.24356 0.0116,-0.69486 1.09986,-2.32223 1.32588,-1.98271 1.35951,-2.01379 1.82591,-1.68711 0.44195,0.30955 0.45109,0.3594 0.13079,0.71332 -0.3204,0.35404 -0.3107,0.4041 0.1395,0.71943 0.61561,0.43119 0.80606,0.42599 1.15335,-0.0315 0.30481,-0.40153 0.38338,-1.50458 0.13266,-1.86228 -0.32977,-0.47049 -1.51424,-1.15397 -1.99981,-1.15397 -0.27993,0 -0.65836,0.11906 -0.84096,0.26458 -0.32608,0.25986 -2.60509,3.59786 -3.12018,4.57004 -0.37309,0.70416 0.0257,1.54476 1.00109,2.11024 0.9228,0.53498 1.281,0.56736 1.85198,0.16743 z m 43.27066,-0.83181 c 1.33723,-0.97304 1.33576,-0.96706 0.50094,-2.0263 -0.0368,-0.0467 -0.31954,0.16757 -0.62822,0.47625 -0.69656,0.69657 -0.74933,0.6957 -1.27103,-0.0208 -0.75264,-1.03375 -0.76332,-1.09792 -0.22354,-1.34386 0.46395,-0.21139 0.49174,-0.29462 0.28303,-0.84757 -0.25618,-0.67868 -0.58542,-0.77748 -0.9853,-0.29565 -0.37516,0.45204 -0.547,0.4006 -1.05765,-0.31654 l -0.45147,-0.63404 0.75171,-0.44352 c 0.64435,-0.38017 0.71992,-0.50295 0.52905,-0.85958 -0.38197,-0.71373 -0.76264,-0.66692 -1.99799,0.24569 -1.19635,0.88379 -1.19643,0.88393 -0.79281,1.34011 0.5242,0.59244 3.3031,4.54779 3.62932,5.1658 0.13827,0.26193 0.29718,0.47625 0.35312,0.47625 0.0559,0 0.66832,-0.41229 1.36084,-0.91619 z M 85.07864,144.4865 c 0.12588,-0.27628 1.05112,-1.67145 2.05607,-3.10038 l 1.82719,-2.59804 -0.67706,-0.69855 -0.67706,-0.69855 -0.86879,0.70466 c -0.47783,0.38756 -1.88541,1.3719 -3.12794,2.18741 l -2.25916,1.48275 0.59852,0.57341 0.59851,0.57342 0.46078,-0.46078 c 0.43925,-0.43924 0.47976,-0.4436 0.86689,-0.0933 0.51934,0.46999 0.51554,0.86499 -0.0115,1.19412 -0.40747,0.25447 -0.40394,0.27503 0.14544,0.84846 0.68569,0.7157 0.77753,0.72304 1.06809,0.0853 z m -0.34426,-2.95601 c -0.18369,-0.22132 -0.0312,-0.42984 0.6966,-0.9525 0.51247,-0.36803 0.99355,-0.66914 1.06906,-0.66914 0.0755,0 -0.17051,0.42862 -0.54673,0.9525 -0.74096,1.03177 -0.86257,1.09853 -1.21893,0.66914 z m 53.70634,0.9769 c -0.56991,-0.53308 -0.99595,-1.0095 -0.94675,-1.0587 0.0492,-0.0492 0.68474,0.2059 1.41231,0.56689 l 1.32285,0.65633 0.49595,-0.46593 c 0.53702,-0.5045 0.63535,-0.81547 0.25785,-0.81547 -0.13097,0 -0.79772,-0.25113 -1.48167,-0.55807 -1.06461,-0.47777 -1.24355,-0.63894 -1.24355,-1.1201 0,-0.62528 -1.45983,-2.19641 -2.26484,-2.43751 -0.58328,-0.17468 -1.43564,0.26974 -2.34421,1.22228 l -0.69322,0.72677 1.53989,1.45051 c 0.84693,0.79777 2.06375,1.98326 2.70405,2.63442 l 1.16416,1.18391 0.55669,-0.50804 0.55669,-0.50804 z m -2.81674,-2.58591 c -0.36101,-0.37681 -0.54628,-0.75262 -0.46957,-0.9525 0.18359,-0.47845 0.56568,-0.40706 1.23055,0.22993 0.464,0.44454 0.54125,0.64101 0.37455,0.9525 -0.2833,0.52935 -0.43813,0.498 -1.13553,-0.22993 z m 8.78659,-2.46909 0.91092,-1.39813 -0.51564,-0.39634 c -0.61911,-0.47586 -0.83314,-0.50455 -0.83314,-0.11169 0,0.16173 -0.17287,0.50754 -0.38415,0.76846 l -0.38416,0.47441 -0.77739,-0.50387 c -0.84901,-0.5503 -0.95458,-0.83851 -0.45808,-1.25057 0.2875,-0.2386 0.26964,-0.3278 -0.15645,-0.78135 l -0.481,-0.512 -0.4512,0.56585 c -0.3705,0.46466 -0.52234,0.52532 -0.84897,0.33919 -1.06322,-0.60586 -1.06293,-0.60489 -0.39506,-1.302 l 0.63028,-0.65787 -0.52816,-0.40578 c -0.29049,-0.22317 -0.57579,-0.40591 -0.63399,-0.40608 -0.0582,-1.6e-4 -0.51272,0.61904 -1.01002,1.37601 -0.79906,1.21628 -0.86058,1.39244 -0.52917,1.51505 0.57011,0.21093 5.20784,3.34198 5.53621,3.73764 0.15848,0.19096 0.31292,0.34719 0.3432,0.34719 0.0303,0 0.46497,-0.62915 0.96597,-1.39812 z M 81.81744,136.2374 c 1.14706,-0.7747 2.11181,-1.40855 2.1439,-1.40855 0.0321,0 0.17614,0.2844 0.32013,0.63201 l 0.26179,0.63201 0.61237,-0.43605 0.61237,-0.43605 -1.09123,-1.57851 c -0.60017,-0.86818 -1.15134,-1.61567 -1.22481,-1.66107 -0.0735,-0.0454 -0.3666,0.0932 -0.65139,0.30801 -0.50369,0.37993 -0.50729,0.40219 -0.1321,0.81678 0.21214,0.2344 0.3214,0.53025 0.2428,0.65743 -0.1936,0.31324 -4.48489,3.1821 -4.75984,3.1821 -0.33801,0 -0.26136,0.31204 0.23013,0.93688 0.44434,0.56488 0.4534,0.56656 0.89959,0.16709 0.2479,-0.22194 1.38923,-1.03737 2.53629,-1.81208 z m 27.33018,-2.6732 c -2.25325,-0.31977 -3.96544,-0.8508 -6.13241,-1.90193 -4.74164,-2.30002 -8.18797,-6.46981 -9.44027,-11.422 -0.63928,-2.52799 -0.51024,-6.60034 0.28214,-8.90463 l 0.54529,-1.58571 -0.84546,-0.91722 c -0.46501,-0.50447 -1.09887,-1.45777 -1.40858,-2.11846 -0.49209,-1.04972 -0.56312,-1.46822 -0.56312,-3.3179 0,-1.888 0.0638,-2.24659 0.59057,-3.31927 1.01347,-2.063794 3.0037,-3.373114 5.78565,-3.806224 1.59648,-0.24855 3.45381,0.0154 4.74551,0.67437 0.86483,0.4412 2.20359,1.8379 2.42237,2.5272 0.0961,0.30271 0.2586,0.41907 0.47132,0.33745 2.44272,-0.93736 7.81393,-1.13923 10.5742,-0.39742 l 1.51796,0.40795 0.70454,-1.04502 c 2.70233,-4.00824 10.38088,-3.22214 12.59638,1.289574 0.53347,1.08637 0.5965,1.43837 0.5965,3.33139 0,1.84157 -0.0717,2.26797 -0.55145,3.28083 -0.30329,0.64029 -0.93034,1.58716 -1.39344,2.10415 l -0.84199,0.93998 0.47806,1.50541 c 1.07914,3.39826 1.09642,6.62613 0.0536,10.00821 -2.19356,7.11399 -8.97589,12.06953 -17.00643,12.42582 -1.04775,0.0465 -2.47916,0.003 -3.18092,-0.0966 z m 7.0039,-1.48761 c 5.64047,-1.43345 10.28025,-5.58519 12.04709,-10.77991 3.0226,-8.88681 -2.35767,-18.16115 -12.06007,-20.7888 -2.37566,-0.643384 -6.6744,-0.642944 -9.10167,8.5e-4 -6.15053,1.63153 -10.92011,6.27134 -12.40169,12.06426 -0.54436,2.12841 -0.5429,5.34717 0.003,7.4831 1.64032,6.41358 7.49527,11.47809 14.37559,12.43482 1.97423,0.27453 5.15266,0.09 7.13737,-0.4144 z m -6.36298,-7.30253 c -0.82213,-0.29086 -1.79917,-1.17093 -1.79917,-1.62061 0,-0.12198 0.33669,0.0738 0.7482,0.43514 0.86644,0.76074 1.6378,0.84253 2.07391,0.2199 0.48148,-0.68741 0.18708,-1.2518 -0.89421,-1.71429 -1.37505,-0.58814 -1.9279,-1.16541 -1.9279,-2.01308 0,-1.30516 1.44126,-2.18561 3.57776,-2.18561 1.49132,0 2.24403,0.24925 3.03683,1.00557 1.11073,1.05963 0.61699,2.3198 -1.22872,3.13606 -1.27299,0.56298 -1.61432,1.15782 -1.03297,1.80021 0.49048,0.54197 0.93447,0.51464 1.86173,-0.11462 0.83316,-0.5654 1.10106,-0.26542 0.36105,0.40427 -1.00263,0.90737 -3.19952,1.20498 -4.77651,0.64706 z m -10.1537,-4.04102 c -1.66231,-0.60855 -2.58042,-1.87766 -2.78681,-3.85226 -0.16532,-1.58173 0.32117,-3.36075 1.32303,-4.83812 1.31255,-1.93551 2.9995,-2.75158 6.11415,-2.95774 1.41034,-0.0934 1.81441,-0.0447 2.41781,0.29103 1.20557,0.67079 1.5387,1.53712 1.44471,3.75706 -0.0697,1.64644 -0.18366,2.12559 -0.83952,3.53017 -0.95692,2.04933 -2.21911,3.34827 -3.84441,3.95637 -1.38334,0.51758 -2.62465,0.55437 -3.82896,0.11349 z m 4.87898,-4.93 c 1.31159,-0.7998 1.7152,-2.82998 0.83093,-4.17956 -0.49705,-0.75858 -2.06049,-1.41687 -2.92207,-1.23034 -3.55549,0.76978 -3.13331,5.80746 0.48669,5.80746 0.5594,0 1.22157,-0.16408 1.60445,-0.39756 z m -2.15141,-1.1422 c -0.39505,-0.21591 -0.71325,-0.5667 -0.7198,-0.7935 -0.002,-0.0618 0.29552,-0.22512 0.66067,-0.36295 0.61133,-0.23075 0.65429,-0.30986 0.54248,-0.9989 -0.10481,-0.64584 -0.064,-0.74831 0.29821,-0.74831 0.50451,0 1.45874,0.90281 1.45874,1.38013 0,0.277 -0.31213,1.05875 -0.52909,1.32515 -0.20244,0.24856 -1.37143,0.38408 -1.71121,0.19838 z m 17.62903,6.10438 c -2.11033,-0.75277 -3.55813,-2.34688 -4.52862,-4.98627 -0.73029,-1.98613 -0.79075,-4.20135 -0.14518,-5.31922 0.66549,-1.15238 1.57794,-1.50359 3.57257,-1.37512 2.33681,0.15051 3.74238,0.65279 5.00596,1.78885 1.86238,1.67445 2.77952,4.37807 2.28811,6.74516 -0.54443,2.62249 -3.48026,4.1142 -6.19284,3.1466 z m 1.90474,-4.9778 c 2.13921,-1.30435 1.60059,-4.65828 -0.85423,-5.31929 -2.35805,-0.63496 -4.4727,1.90192 -3.42528,4.10919 0.72453,1.52684 2.79832,2.11323 4.27951,1.2101 z m -1.95499,-1.05862 c -0.43473,-0.17422 -1.07607,-0.81601 -0.92239,-0.92304 0.0457,-0.0318 0.35514,-0.17497 0.68765,-0.3181 0.52936,-0.22786 0.5939,-0.35169 0.51875,-0.99536 -0.0753,-0.64464 -0.0278,-0.73512 0.38548,-0.73512 0.56446,0 1.3487,0.92607 1.3487,1.5926 0,0.96289 -1.12996,1.73499 -2.01819,1.37902 z m -49.9849,-5.07632 c -0.54484,-0.24737 -1.10551,-0.73439 -1.45716,-1.26578 -0.51972,-0.78534 -0.56123,-0.9933 -0.4575,-2.29203 0.21418,-2.68166 2.05128,-8.024674 4.07601,-11.854674 4.44038,-8.399456 11.37121,-15.128206 19.8909,-19.310934 9.22394,-4.528478 19.92429,-5.699511 30.05667,-3.289366 13.45987,3.201641 24.97665,12.956788 30.46415,25.80427 1.29838,3.039814 2.45447,6.889884 2.58185,8.598214 0.13194,1.76959 -0.41572,2.83765 -1.81797,3.54542 -0.91231,0.46047 -1.14217,0.47625 -6.93965,0.47625 -5.55548,0 -6.05636,-0.0308 -6.81649,-0.41854 -1.0433,-0.53226 -1.52204,-1.22368 -2.12839,-3.07396 -0.77205,-2.35591 -1.81767,-4.48891 -3.26539,-6.661184 -3.82619,-5.74113 -9.24128,-9.572795 -16.01487,-11.331972 -2.99783,-0.778569 -7.79579,-0.965538 -11.00536,-0.428862 -9.81651,1.641439 -18.04652,8.613714 -21.24548,17.998678 -1.33313,3.91106 -1.32259,3.90654 -9.10907,3.90654 -5.37026,0 -6.00981,-0.0378 -6.81225,-0.40207 z M 86.97944,92.125096 c -0.56342,-0.606811 -0.60152,-0.601359 -1.10923,0.15875 -0.23284,0.34858 -0.50432,0.63406 -0.6033,0.63439 -0.23666,8.5e-4 -4.08192,-3.309993 -4.44289,-3.825347 -0.26705,-0.381262 -0.30781,-0.369476 -0.89762,0.259468 -0.43714,0.466158 -0.53575,0.688408 -0.33714,0.759862 0.33094,0.119065 5.22562,4.374017 5.45084,4.738417 0.10087,0.16322 0.53993,-0.18299 1.26792,-0.9998 l 1.11361,-1.24949 z m 52.457,0.0529 c 1.14395,-1.513416 2.22306,-2.859603 2.39803,-2.991527 0.27434,-0.206851 0.23218,-0.343116 -0.3064,-0.990136 -0.72959,-0.876488 -0.8725,-0.914402 -1.45755,-0.386666 -0.50326,0.453959 -5.10192,3.263555 -5.71583,3.492135 -0.38221,0.142312 -0.36542,0.197949 0.24357,0.806934 l 0.65408,0.65408 0.48246,-0.44948 c 0.45011,-0.419337 0.50829,-0.426099 0.86768,-0.10085 0.49712,0.44988 0.48647,0.76078 -0.0425,1.23947 -0.42744,0.38683 -0.42735,0.38745 0.14332,0.9831 0.31407,0.32781 0.58952,0.57321 0.61212,0.54532 0.0226,-0.0279 0.97705,-1.28896 2.121,-2.80238 z m -1.81233,-0.633308 c -0.26231,-0.316071 -0.23754,-0.404745 0.20672,-0.739847 0.8344,-0.629391 1.69729,-1.096027 1.69056,-0.914229 -0.003,0.0939 -0.36472,0.585274 -0.80278,1.091953 -0.72982,0.84415 -0.8214,0.891184 -1.0945,0.562123 z m -47.45074,-1.51791 c 0.0384,-0.01901 -0.0997,-0.293241 -0.30684,-0.609418 -0.36883,-0.562911 -0.36632,-0.583246 0.12087,-0.977748 0.49113,-0.397694 0.50376,-0.397034 0.98114,0.05144 l 0.48361,0.454322 0.6608,-0.470531 c 0.36344,-0.258792 0.6315,-0.492908 0.59569,-0.52026 -0.81843,-0.625136 -5.05672,-4.337846 -5.37625,-4.709556 l -0.44282,-0.515131 -0.72135,0.585921 c -0.39674,0.322259 -0.75045,0.60393 -0.78601,0.625939 -0.0356,0.02201 0.4747,1.014232 1.13394,2.20494 0.65923,1.190705 1.48578,2.778593 1.83677,3.528636 l 0.63816,1.363715 0.55623,-0.488861 c 0.30593,-0.268872 0.58765,-0.504408 0.62606,-0.523411 z m -1.94119,-3.433676 c -0.78263,-1.437956 -0.70856,-1.525456 0.38382,-0.453369 0.72648,0.712989 0.89274,0.99397 0.71492,1.208236 -0.36479,0.439536 -0.49876,0.347493 -1.09874,-0.754867 z m 44.68362,2.611763 c 0.257,-0.180014 1.14208,-1.236963 1.96683,-2.348778 2.04397,-2.755377 2.0379,-3.121958 -0.0773,-4.674669 -0.74133,-0.544184 -1.09621,-0.699277 -1.16028,-0.507066 -0.13418,0.40252 -3.8683,5.38063 -4.24597,5.660474 -0.26624,0.19728 -0.0973,0.400531 1.01196,1.217084 1.44276,1.062094 1.79102,1.152882 2.50477,0.652955 z M 131.59,87.759021 c -0.37716,-0.275787 -0.32123,-0.395408 1.03916,-2.2225 0.79078,-1.062063 1.50525,-1.931024 1.58771,-1.931024 0.0825,0 0.3293,0.131163 0.54854,0.291475 0.37717,0.275787 0.32123,0.395408 -1.03916,2.2225 -0.79077,1.062063 -1.50524,1.931025 -1.5877,1.931025 -0.0825,0 -0.32931,-0.131164 -0.54855,-0.291476 z m -35.23425,-1.829236 1.69198,-0.850709 -0.32779,-0.63387 -0.32778,-0.63387 -0.77967,0.5298 c -0.57132,0.388222 -0.81732,0.459704 -0.92056,0.267498 -0.0775,-0.144268 -0.31199,-1.619616 -0.52113,-3.278554 -0.20913,-1.658937 -0.46088,-3.01625 -0.55945,-3.01625 -0.15638,0 -3.12421,1.429589 -3.30633,1.592642 -0.0377,0.03374 0.0861,0.360418 0.27515,0.725944 l 0.34367,0.664595 0.64067,-0.539091 c 1.07441,-0.90405 1.01781,-1.018972 1.58482,3.217993 0.20642,1.542521 0.40662,2.804584 0.44488,2.804584 0.0383,0 0.83095,-0.382821 1.76154,-0.850712 z m 30.98528,-0.114006 c 0.0747,-0.29776 0.77562,-1.864167 1.55753,-3.480905 l 1.42165,-2.939522 -0.6951,-0.329094 c -0.8678,-0.410862 -0.88886,-0.409904 -0.90861,0.04132 -0.009,0.203729 -0.29019,0.941917 -0.62504,1.640417 l -0.60883,1.27 0.12578,-1.951785 0.12578,-1.951785 -0.59443,-0.226002 c -0.56622,-0.215277 -0.93233,-0.03688 -0.94381,0.459888 -0.003,0.108775 -2.60533,5.58332 -2.90764,6.115682 -0.0368,0.06472 0.25616,0.271687 0.65092,0.459933 l 0.71774,0.342265 0.57442,-1.464117 c 0.31594,-0.805267 0.66587,-1.520631 0.77762,-1.589697 0.18929,-0.116989 0.13207,0.941774 -0.15191,2.811136 -0.0873,0.574872 -0.0138,0.725498 0.48678,0.996944 0.79249,0.429742 0.84039,0.419913 0.99715,-0.20468 z m -24.41268,-2.33252 c 0.0686,-0.03985 -0.10143,-0.719211 -0.37793,-1.509691 -0.456,-1.303615 -0.49128,-1.666907 -0.37949,-3.907549 l 0.12325,-2.470311 -0.77327,0.237325 -0.77328,0.237326 0.14119,1.247984 c 0.16679,1.474188 -0.11945,1.475051 -0.77091,0.0023 -0.39391,-0.890516 -0.44954,-0.93116 -1.08726,-0.794459 -0.99269,0.212789 -1.06267,0.305289 -0.60863,0.804534 1.15518,1.27021 2.39507,3.51396 2.74433,4.966237 l 0.36719,1.526868 0.635,-0.134068 c 0.34925,-0.07374 0.69116,-0.166671 0.75981,-0.206521 z m 18.34267,-2.472527 c 0.0289,-1.541505 0.10639,-3.296641 0.17227,-3.900303 l 0.1198,-1.097567 -0.80728,-0.224169 c -1.12716,-0.312999 -1.33643,-0.285108 -1.33643,0.178114 0,0.222554 -0.65703,1.84243 -1.46006,3.599725 l -1.46006,3.195081 0.56048,0.122122 c 0.30826,0.06717 0.67316,0.156353 0.81089,0.198196 0.13773,0.04184 0.31198,-0.20424 0.38723,-0.546847 0.14159,-0.644627 0.29033,-0.708722 1.12566,-0.485047 0.32364,0.08666 0.45992,0.249468 0.39622,0.473358 -0.0534,0.187698 -0.13252,0.478847 -0.17581,0.647002 -0.0694,0.269534 0.49943,0.520865 1.40295,0.619874 0.12929,0.01416 0.23209,-1.06753 0.26414,-2.779539 z m -1.90456,-0.323975 c -0.45971,-0.09386 -0.45639,-0.124436 0.15412,-1.420427 l 0.49856,-1.058333 0.003,0.9525 c 0.003,1.192782 -0.18134,1.62306 -0.65542,1.52626 z m -6.72042,0.272906 V 79.58383 h 0.81386 c 1.19649,0 1.58922,-0.541451 1.69031,-2.330379 0.0753,-1.332372 0.0372,-1.497539 -0.46059,-1.995286 -0.4719,-0.471903 -0.72333,-0.542668 -1.92812,-0.542668 h -1.38546 l -0.008,2.275416 c -0.007,2.09835 -0.0484,2.737171 -0.29893,4.656667 -0.0881,0.674831 -0.0739,0.687917 0.74357,0.687917 h 0.83336 V 80.95966 Z m 0.10806,-2.853899 c -0.12068,-0.195261 0.0579,-1.624244 0.24402,-1.952273 0.0466,-0.08223 0.22464,-0.09585 0.39554,-0.03027 0.2146,0.08235 0.31072,0.439614 0.31072,1.154923 0,0.884079 -0.0601,1.035687 -0.41085,1.035687 -0.22596,0 -0.4687,-0.09363 -0.53943,-0.208067 z"
             id="path364" /></g></g></clipPath><inkscape:path-effect
       effect="fill_between_many"
       method="originald"
       linkedpaths="#text348,0,1|#path350,0,1"
       id="path-effect406" /></defs><g
     inkscape:label="Layer 1"
     inkscape:groupmode="layer"
     id="layer1"><path
       inkscape:original-d="M 0,0"
       inkscape:path-effect="#path-effect406"
       d="M 0,0"
       id="path408"
       class="UnoptimicedTransforms" /><g
       id="g512"
       transform="matrix(0.7779108,0,0,0.75995481,24.77324,27.58492)"><path
         style="fill:#000080;stroke-width:0.211667"
         d="m 106.82521,165.58749 c -3.99372,-0.3468 -9.59362,-1.6609 -13.38938,-3.14203 -15.28545,-5.96443 -26.81198,-18.71925 -30.95625,-34.255 -1.18005,-4.42368 -1.489,-6.63009 -1.62473,-11.60316 -0.13757,-5.04099 0.0678,-7.77654 0.88686,-11.81512 2.65333,-13.082327 10.48846,-24.701373 21.7106,-32.195587 8.27,-5.522758 18.00448,-8.444413 28.1354,-8.444413 5.70469,0 10.64098,0.79396 15.98083,2.570376 16.53312,5.500098 29.1324,19.086227 33.34147,35.952954 1.11119,4.45283 1.37073,6.80333 1.36723,12.3825 -0.003,5.44068 -0.23083,7.53282 -1.29718,11.93344 -4.96166,20.47573 -22.48549,35.99735 -43.40335,38.44424 -2.42514,0.28369 -8.36929,0.37867 -10.7515,0.1718 z m 9.54115,-0.92697 c 20.86262,-2.03013 38.43105,-17.08374 43.58477,-37.34584 1.14967,-4.51996 1.47127,-7.22663 1.47127,-12.3825 0,-3.3645 -0.10181,-5.21297 -0.39053,-7.09083 -2.20565,-14.345614 -9.95223,-26.535889 -21.92749,-34.505828 -5.6707,-3.774041 -11.77353,-6.267176 -18.33016,-7.488264 -22.24083,-4.142065 -44.25254,7.009512 -54.20548,27.461588 -6.62219,13.607794 -6.5693,29.837984 0.14186,43.530834 7.73377,15.7793 23.20074,26.36935 40.74961,27.90078 1.96847,0.17179 6.7614,0.12876 8.90615,-0.0799 z m -8.80032,-1.05939 c -17.21473,-1.5185 -32.25423,-11.79547 -39.78269,-27.18478 -3.39797,-6.94598 -4.92381,-13.50422 -4.94923,-21.2725 -0.023,-7.01745 1.00019,-12.34724 3.59606,-18.732504 6.23567,-15.338348 20.32285,-26.690392 36.64461,-29.529756 15.56499,-2.707714 31.07441,2.073351 42.4099,13.073629 5.98678,5.809743 10.05695,12.340737 12.56409,20.160291 1.57207,4.90317 2.26006,9.36265 2.26953,14.71084 0.009,5.12165 -0.50773,8.87866 -1.89254,13.75833 -4.58151,16.14395 -18.12455,29.31683 -34.51042,33.56717 -5.00179,1.29741 -11.52028,1.87525 -16.34931,1.44928 z m 11.53584,-2.6091 c 7.93375,-1.45718 14.38896,-4.23715 20.48008,-8.81985 7.75487,-5.83442 13.47018,-13.87538 16.42919,-23.11444 2.88098,-8.99543 2.88098,-19.25569 0,-28.25112 C 151.25879,85.968093 139.4064,74.45034 124.39354,70.081714 117.37,68.037916 108.86301,67.788209 101.42771,69.407594 87.97514,72.337519 76.10338,81.631267 69.79009,94.174946 c -2.09539,4.16325 -3.83364,9.861544 -4.47592,14.672864 -0.41159,3.08316 -0.45848,8.51044 -0.0992,11.48187 2.07203,17.13734 13.32798,31.69341 29.43942,38.07073 2.91774,1.15492 6.59665,2.1367 10.05416,2.68314 3.26093,0.51536 11.36984,0.46381 14.39334,-0.0915 z m -9.73667,-1.6433 c -10.87867,-0.44742 -20.81204,-4.74778 -28.75669,-12.44935 -5.77118,-5.5946 -9.61458,-11.98924 -11.89828,-19.79637 -1.14728,-3.9221 -0.77117,-5.9749 1.26403,-6.89918 0.77889,-0.35373 1.47218,-0.39449 6.78036,-0.39867 7.75483,-0.006 7.79336,0.0104 9.12298,3.91119 3.15868,9.26679 11.36866,16.29902 20.99453,17.98279 3.98725,0.69746 9.46775,0.30661 13.18224,-0.94012 8.16061,-2.73901 14.67759,-9.29792 17.35433,-17.46601 0.60635,-1.85028 1.08509,-2.5417 2.12839,-3.07396 0.75992,-0.38768 1.26092,-0.41854 6.79452,-0.41854 5.63275,0 6.02647,0.0254 6.89059,0.44367 1.13736,0.55059 1.96883,1.85857 1.96883,3.09717 0,2.91873 -2.90612,10.45514 -5.87604,15.2383 -7.02519,11.31428 -19.54408,19.22924 -32.54146,20.57404 -3.20123,0.33122 -3.74739,0.3456 -7.40833,0.19504 z M 69.95629,109.65248 c -0.54484,-0.24737 -1.10551,-0.73439 -1.45716,-1.26578 -0.51972,-0.78534 -0.56123,-0.9933 -0.4575,-2.29203 0.21418,-2.68166 2.05128,-8.024674 4.07601,-11.854674 4.44038,-8.399456 11.37121,-15.128206 19.8909,-19.310934 9.22394,-4.528478 19.92429,-5.699511 30.05667,-3.289366 13.45987,3.201641 24.97665,12.956788 30.46415,25.80427 1.29838,3.039814 2.45447,6.889884 2.58185,8.598214 0.13194,1.76959 -0.41572,2.83765 -1.81797,3.54542 -0.91231,0.46047 -1.14217,0.47625 -6.93965,0.47625 -5.55548,0 -6.05636,-0.0308 -6.81649,-0.41854 -1.0433,-0.53226 -1.52204,-1.22368 -2.12839,-3.07396 -0.77205,-2.35591 -1.81767,-4.48891 -3.26539,-6.661184 -3.82619,-5.74113 -9.24128,-9.572795 -16.01487,-11.331972 -2.99783,-0.778569 -7.79579,-0.965538 -11.00536,-0.428862 -9.81651,1.641439 -18.04652,8.613714 -21.24548,17.998678 -1.33313,3.91106 -1.32259,3.90654 -9.10907,3.90654 -5.37026,0 -6.00981,-0.0378 -6.81225,-0.40207 z"
         id="path341"
         sodipodi:nodetypes="scsscsssscssscssssssssccsscsssscssssssssssscsssssssscsssssscsssscssssssssscssssssc" /><path
         style="fill:none;stroke:#000080;stroke-width:0.304056"
         id="path224"
         sodipodi:type="arc"
         sodipodi:cx="149.28406"
         sodipodi:cy="57.973667"
         sodipodi:rx="17.285425"
         sodipodi:ry="9.3179731"
         sodipodi:start="5.1876351"
         sodipodi:end="5.1719765"
         sodipodi:arc-type="arc"
         d="m 157.19313,49.688311 a 17.285425,9.3179731 0 0 1 7.49163,12.516396 17.285425,9.3179731 0 0 1 -23.1892,4.087443 17.285425,9.3179731 0 0 1 -7.67318,-12.484395 17.285425,9.3179731 0 0 1 23.12912,-4.185187"
         sodipodi:open="true"
         transform="rotate(24.404368)" /><path
         style="fill:none;stroke:#000080;stroke-width:0.304056"
         id="path226"
         sodipodi:type="arc"
         sodipodi:cx="-109.3728"
         sodipodi:cy="118.35886"
         sodipodi:rx="17.285425"
         sodipodi:ry="9.3179731"
         sodipodi:start="5.1876351"
         sodipodi:end="5.1719765"
         sodipodi:arc-type="arc"
         d="m -101.46373,110.0735 a 17.285425,9.3179731 0 0 1 7.491627,12.5164 17.285425,9.3179731 0 0 1 -23.189197,4.08744 17.285425,9.3179731 0 0 1 -7.67318,-12.4844 17.285425,9.3179731 0 0 1 23.12912,-4.18518"
         sodipodi:open="true"
         transform="rotate(-87.346348)" /><path
         style="fill:none;stroke:#000080;stroke-width:0.304056"
         id="path228"
         sodipodi:type="arc"
         sodipodi:cx="24.492792"
         sodipodi:cy="159.2838"
         sodipodi:rx="17.285425"
         sodipodi:ry="9.3179731"
         sodipodi:start="5.1876351"
         sodipodi:end="5.1719765"
         sodipodi:arc-type="arc"
         d="m 32.401865,150.99844 a 17.285425,9.3179731 0 0 1 7.491627,12.5164 17.285425,9.3179731 0 0 1 -23.189196,4.08744 17.285425,9.3179731 0 0 1 -7.6731823,-12.48439 17.285425,9.3179731 0 0 1 23.1291213,-4.18519"
         sodipodi:open="true"
         transform="rotate(-35.86419)" /><path
         style="fill:#ffd42a;stroke:#ffd42a;stroke-width:0.264583"
         id="path230"
         sodipodi:type="arc"
         sodipodi:cx="127.6651"
         sodipodi:cy="105.52777"
         sodipodi:rx="0.97952759"
         sodipodi:ry="0.97952759"
         sodipodi:start="5.1876351"
         sodipodi:end="5.1719765"
         sodipodi:open="true"
         sodipodi:arc-type="arc"
         d="m 128.11329,104.65679 a 0.97952759,0.97952759 0 0 1 0.42453,1.31576 0.97952759,0.97952759 0 0 1 -1.31408,0.42968 0.97952759,0.97952759 0 0 1 -0.43482,-1.31239 0.97952759,0.97952759 0 0 1 1.31068,-0.43996" /><path
         style="fill:#ff0000;stroke:#ff0000;stroke-width:0.264583"
         id="path284"
         sodipodi:type="arc"
         sodipodi:cx="99.389404"
         sodipodi:cy="125.05302"
         sodipodi:rx="0.97952759"
         sodipodi:ry="0.97952759"
         sodipodi:start="5.1876351"
         sodipodi:end="5.1719765"
         sodipodi:open="true"
         sodipodi:arc-type="arc"
         d="m 99.837594,124.18204 a 0.97952759,0.97952759 0 0 1 0.424536,1.31575 0.97952759,0.97952759 0 0 1 -1.314083,0.42969 0.97952759,0.97952759 0 0 1 -0.434823,-1.31239 0.97952759,0.97952759 0 0 1 1.310678,-0.43996" /><path
         style="fill:#ff00ff;stroke:#ff00ff;stroke-width:0.264583"
         id="path286"
         sodipodi:type="arc"
         sodipodi:cx="128.05692"
         sodipodi:cy="120.09008"
         sodipodi:rx="0.97952759"
         sodipodi:ry="0.97952759"
         sodipodi:start="5.1876351"
         sodipodi:end="5.1719765"
         sodipodi:open="true"
         sodipodi:arc-type="arc"
         d="m 128.50511,119.2191 a 0.97952759,0.97952759 0 0 1 0.42453,1.31576 0.97952759,0.97952759 0 0 1 -1.31408,0.42968 0.97952759,0.97952759 0 0 1 -0.43482,-1.31239 0.97952759,0.97952759 0 0 1 1.31067,-0.43996" /><path
         style="fill:#000080;stroke:#000080;stroke-width:0.264583"
         id="path288"
         sodipodi:type="arc"
         sodipodi:cx="96.770576"
         sodipodi:cy="106.5726"
         sodipodi:rx="0.97952759"
         sodipodi:ry="0.97952759"
         sodipodi:start="5.1876351"
         sodipodi:end="5.1719765"
         sodipodi:open="true"
         sodipodi:arc-type="arc"
         d="m 97.218766,105.70162 a 0.97952759,0.97952759 0 0 1 0.424535,1.31576 0.97952759,0.97952759 0 0 1 -1.314082,0.42968 0.97952759,0.97952759 0 0 1 -0.434822,-1.31239 0.97952759,0.97952759 0 0 1 1.310677,-0.43996" /><path
         style="fill:#008000;stroke:#008000;stroke-width:0.264583"
         id="path290"
         sodipodi:type="arc"
         sodipodi:cx="114.14087"
         sodipodi:cy="97.488892"
         sodipodi:rx="0.97952759"
         sodipodi:ry="0.97952759"
         sodipodi:start="5.1876351"
         sodipodi:end="5.1719765"
         sodipodi:open="true"
         sodipodi:arc-type="arc"
         d="m 114.58906,96.617915 a 0.97952759,0.97952759 0 0 1 0.42453,1.315754 0.97952759,0.97952759 0 0 1 -1.31408,0.429681 0.97952759,0.97952759 0 0 1 -0.43482,-1.312389 0.97952759,0.97952759 0 0 1 1.31068,-0.439957" /><path
         style="fill:#000000;stroke:#000000;stroke-width:0.264583"
         id="path292"
         sodipodi:type="arc"
         sodipodi:cx="112.90014"
         sodipodi:cy="131.97502"
         sodipodi:rx="0.97952759"
         sodipodi:ry="0.97952759"
         sodipodi:start="5.1876351"
         sodipodi:end="5.1719765"
         sodipodi:open="true"
         sodipodi:arc-type="arc"
         d="m 113.34833,131.10404 a 0.97952759,0.97952759 0 0 1 0.42453,1.31576 0.97952759,0.97952759 0 0 1 -1.31408,0.42968 0.97952759,0.97952759 0 0 1 -0.43482,-1.31239 0.97952759,0.97952759 0 0 1 1.31068,-0.43996" /><g
         aria-label="NAMI TECH LINK"
         transform="matrix(1.2948169,1.0728502,-0.70260784,1.9771264,212.33749,-80.242683)"
         id="text348"
         style="font-size:5.75797px;fill:#ffffff;stroke:#000000;stroke-width:0.479831"
         class="UnoptimicedTransforms"
         inkscape:transform-center-x="24.460162"
         inkscape:transform-center-y="-78.819797"><path
           d="m -39.041777,111.5913 -0.217831,0.65347 -4.180449,0.69877 3.552738,1.18429 -0.164485,0.49343 -3.971492,-1.32388 0.272956,-0.81883 3.815927,-0.63654 -3.243341,-1.08115 0.164485,-0.49344 z"
           style="stroke:#f9f9f9"
           id="path1475" /><path
           d="m -37.107621,107.62037 -0.268012,0.52924 -1.226361,-0.16094 -0.81801,1.6153 0.855461,0.89333 -0.25531,0.50415 -3.04629,-3.25078 0.335333,-0.66217 z m -1.998253,0.30537 -2.165031,-0.27387 1.500715,1.58567 z"
           style="stroke:#f9f9f9"
           id="path1477" /><path
           d="m -34.588719,104.05054 -0.325756,0.45141 -2.92507,-2.11083 1.309199,2.38015 -0.194138,0.26903 -2.666514,-0.49926 2.92507,2.11083 -0.304368,0.42177 -3.394722,-2.44975 0.444212,-0.61556 2.543167,0.45879 -1.258241,-2.23937 0.452438,-0.62696 z"
           style="stroke:#f9f9f9"
           id="path1479" /><path
           d="m -32.803633,102.15195 -1.129186,1.20743 -0.312126,-0.29189 0.374475,-0.40043 -2.433352,-2.27565 -0.374475,0.40042 -0.312126,-0.2919 1.129186,-1.207433 0.312126,0.291898 -0.374475,0.400425 2.433352,2.27566 0.374475,-0.40043 z"
           style="stroke:#f9f9f9"
           id="path1481" /><path
           d="m -30.479984,95.391427 -1.189603,0.906659 2.237678,2.935993 -0.442747,0.337441 -2.237677,-2.935993 -1.189603,0.90666 -0.299948,-0.393552 2.821952,-2.150761 z"
           style="stroke:#f9f9f9"
           id="path1483" /><path
           d="m -25.385127,96.628259 -2.370943,1.409145 -2.138855,-3.598709 2.370943,-1.409145 0.252813,0.425368 -1.892404,1.12473 0.586066,0.98608 1.892404,-1.12473 0.252813,0.425368 -1.892404,1.12473 0.79435,1.336526 1.892404,-1.124731 z"
           style="stroke:#f9f9f9"
           id="path1485" /><path
           d="m -21.765138,94.634616 q -0.113867,0.124494 -0.205472,0.229856 -0.08904,0.104219 -0.247717,0.245568 -0.134992,0.118506 -0.305098,0.234166 -0.166394,0.117087 -0.387317,0.215347 -0.416158,0.185096 -0.809234,0.221459 -0.39165,0.03265 -0.754228,-0.104559 -0.355156,-0.134357 -0.660691,-0.447714 -0.306676,-0.315926 -0.528335,-0.814287 -0.210232,-0.472673 -0.242323,-0.904574 -0.03209,-0.4319 0.105402,-0.800759 0.133214,-0.357725 0.419172,-0.641842 0.288528,-0.285259 0.709823,-0.472641 0.308265,-0.137108 0.647096,-0.198576 0.341399,-0.06261 0.799863,-0.0419 l 0.268503,0.603686 -0.03853,0.01714 q -0.433656,-0.124058 -0.798191,-0.106544 -0.364534,0.01751 -0.719039,0.175188 -0.290283,0.12911 -0.481776,0.328132 -0.190066,0.195311 -0.284478,0.474236 -0.09156,0.271503 -0.06035,0.611484 0.03263,0.336269 0.204021,0.721601 0.179383,0.403313 0.416386,0.645608 0.239572,0.241152 0.492809,0.346991 0.264371,0.110117 0.544409,0.09634 0.281464,-0.01749 0.548627,-0.136318 0.367349,-0.163387 0.632473,-0.432083 0.265123,-0.268696 0.433159,-0.644985 l 0.03596,-0.016 z"
           style="stroke:#f9f9f9"
           id="path1487" /><path
           d="m -17.831929,93.717003 -0.532596,0.161965 -0.596329,-1.96092 -1.998579,0.60778 0.596329,1.960921 -0.532596,0.161966 -1.218016,-4.005228 0.532596,-0.161966 0.477717,1.570889 1.998579,-0.607781 -0.477717,-1.570889 0.532596,-0.161965 z"
           style="stroke:#f9f9f9"
           id="path1489" /><path
           d="m -12.11568,92.752237 -2.625617,0.346952 -0.548419,-4.150259 0.551881,-0.07293 0.483596,3.659698 2.073736,-0.274026 z"
           style="stroke:#f9f9f9"
           id="path1491" /><path
           d="m -10.082726,92.657621 -1.650725,0.08982 -0.02322,-0.426718 0.547434,-0.02979 -0.181007,-3.326717 -0.547434,0.02979 -0.02322,-0.426718 1.650726,-0.08982 0.02322,0.426718 -0.547434,0.02979 0.181007,3.326717 0.547434,-0.02979 z"
           style="stroke:#f9f9f9"
           id="path1493" /><path
           d="m -5.9423211,92.729042 -0.6883826,-0.02453 -1.8502853,-3.813249 -0.1333805,3.742554 -0.5197991,-0.01852 0.1491018,-4.183681 0.8625855,0.03074 1.6876981,3.481113 0.1217648,-3.416626 0.5197991,0.01852 z"
           style="stroke:#f9f9f9"
           id="path1495" /><path
           d="m -1.5016502,93.322193 -0.7150965,-0.10357 -1.3716931,-2.082146 -0.4754797,0.379988 -0.2035125,1.405151 -0.5509304,-0.07979 0.6000596,-4.143108 0.5509304,0.07979 -0.3131272,2.161984 2.3248578,-1.870619 0.66779436,0.09672 -2.13244346,1.679742 z"
           style="stroke:#f9f9f9"
           id="path1497" /></g><g
         aria-label="         Pertner For Your Future"
         transform="matrix(1.1013568,0,0,0.98755989,47.393003,-48.257225)"
         id="text1768"
         style="font-size:5.32326px;opacity:0.97;fill:#ffffff;fill-opacity:1;stroke:#f4f4f4;stroke-width:0.443604;stroke-opacity:1"><path
           d="m 34.55348,191.77086 q -0.172534,0.19091 -0.388164,0.29383 -0.211959,0.10273 -0.439574,0.11425 -0.282682,0.0143 -0.553135,-0.0935 -0.268711,-0.10971 -0.57726,-0.38855 l -0.381829,-0.34507 -0.967237,1.07028 -0.381829,-0.34507 2.594983,-2.87143 0.779086,0.70407 q 0.25841,0.23354 0.39767,0.43997 0.141003,0.2045 0.196197,0.42254 0.06458,0.25806 0.0052,0.50214 -0.0575,0.24583 -0.28406,0.49653 z m -0.40597,-0.34937 q 0.134193,-0.14849 0.181463,-0.30547 0.04727,-0.15697 0.0039,-0.32225 -0.03854,-0.14343 -0.135445,-0.27655 -0.09324,-0.13331 -0.274508,-0.29713 l -0.377973,-0.34158 -1.036947,1.14741 0.322048,0.29105 q 0.231412,0.20913 0.412642,0.29934 0.182973,0.0883 0.35552,0.0796 0.174289,-0.0106 0.303296,-0.0797 0.130935,-0.0674 0.245958,-0.19463 z"
           id="path1824"
           style="fill:#ffffff;fill-opacity:1;stroke:#f4f4f4;stroke-opacity:1" /><path
           d="m 35.908474,194.53271 -1.665577,-1.34237 q -0.168,0.20845 -0.230855,0.41485 -0.06122,0.20437 -0.03186,0.39161 0.02695,0.18196 0.131489,0.34633 0.106568,0.16601 0.280613,0.30628 0.230712,0.18595 0.536846,0.28245 0.309788,0.0961 0.48072,0.087 l 0.02024,0.0163 -0.334368,0.41488 q -0.257502,-0.074 -0.501896,-0.18083 -0.244394,-0.10684 -0.464987,-0.28462 -0.562613,-0.45344 -0.633664,-1.01145 -0.06942,-0.56004 0.382385,-1.12063 0.446912,-0.55452 1.011058,-0.63732 0.566169,-0.0812 1.059974,0.31681 0.457376,0.36862 0.488977,0.83475 0.03363,0.46776 -0.362723,0.95954 z m -0.13548,-0.58991 q 0.239374,-0.30115 0.22173,-0.58578 -0.01562,-0.28299 -0.319188,-0.52765 -0.305592,-0.24629 -0.632898,-0.21297 -0.325282,0.035 -0.564868,0.28252 z"
           id="path1826"
           style="fill:#ffffff;fill-opacity:1;stroke:#f4f4f4;stroke-opacity:1" /><path
           d="m 38.484799,195.19774 -0.02108,-0.0152 q -0.07332,-0.085 -0.15155,-0.15422 -0.0746,-0.0699 -0.188424,-0.15198 -0.183382,-0.13232 -0.413432,-0.17331 -0.228528,-0.0431 -0.479391,-0.0286 l -1.206069,1.67151 -0.396273,-0.28593 1.69884,-2.35445 0.396273,0.28593 -0.250948,0.34779 q 0.372958,-0.0194 0.608397,0.0319 0.239068,0.0507 0.426665,0.18606 0.103284,0.0745 0.145094,0.11431 0.04333,0.0377 0.125429,0.11935 z"
           id="path1828"
           style="fill:#ffffff;fill-opacity:1;stroke:#f4f4f4;stroke-opacity:1" /><path
           d="m 38.76065,198.17347 q -0.135221,-0.0449 -0.285087,-0.11493 -0.147691,-0.0686 -0.254299,-0.13828 -0.372039,-0.24319 -0.434834,-0.56992 -0.0628,-0.32674 0.225905,-0.7684 l 0.844768,-1.29235 -0.27631,-0.18061 0.224703,-0.34376 0.276309,0.18062 0.456516,-0.69839 0.409026,0.26737 -0.456516,0.69839 0.844159,0.5518 -0.224703,0.34375 -0.844159,-0.5518 -0.723883,1.10742 q -0.125151,0.19146 -0.187557,0.30593 -0.06098,0.11229 -0.06992,0.23998 -0.009,0.11831 0.04663,0.21369 0.05925,0.0946 0.231129,0.20698 0.100081,0.0654 0.227353,0.10825 0.128693,0.0406 0.189358,0.0523 l 0.02176,0.0142 z"
           id="path1830"
           style="fill:#ffffff;fill-opacity:1;stroke:#f4f4f4;stroke-opacity:1" /><path
           d="m 41.356151,199.71052 -0.424875,-0.24139 0.816616,-1.43734 q 0.09887,-0.17401 0.164555,-0.33699 0.06697,-0.16523 0.06152,-0.28193 -0.0026,-0.12701 -0.08311,-0.23256 -0.07926,-0.10781 -0.248753,-0.20411 -0.174018,-0.0989 -0.412647,-0.12084 -0.238629,-0.022 -0.488402,0.0125 l -1.070845,1.88482 -0.424875,-0.24139 1.434214,-2.52439 0.424875,0.24139 -0.159215,0.28024 q 0.292609,-0.052 0.557689,-0.024 0.265081,0.028 0.488818,0.15515 0.409055,0.2324 0.483797,0.60072 0.07474,0.36831 -0.188474,0.83161 z"
           id="path1832"
           style="fill:#ffffff;fill-opacity:1;stroke:#f4f4f4;stroke-opacity:1" /><path
           d="m 44.988634,199.89612 -1.939382,-0.90272 q -0.112976,0.24272 -0.124383,0.45817 -0.01031,0.21309 0.06319,0.38779 0.06989,0.17015 0.210873,0.30458 0.143341,0.13553 0.345998,0.22986 0.268639,0.12504 0.588993,0.14514 0.323807,0.0188 0.487536,-0.0311 l 0.02356,0.011 -0.224857,0.48308 q -0.267739,-0.01 -0.530646,-0.0549 -0.262906,-0.045 -0.519763,-0.16452 -0.6551,-0.30493 -0.858182,-0.82951 -0.201985,-0.52694 0.101845,-1.17968 0.30054,-0.64568 0.82825,-0.86164 0.530066,-0.21486 1.105046,0.0528 0.532564,0.24789 0.675269,0.69276 0.145061,0.44597 -0.121475,1.0186 z m -0.273288,-0.54006 q 0.159979,-0.34986 0.07445,-0.6219 -0.08318,-0.27095 -0.436649,-0.43547 -0.355828,-0.16563 -0.665531,-0.0546 -0.307347,0.1121 -0.480411,0.41 z"
           id="path1834"
           style="fill:#ffffff;fill-opacity:1;stroke:#f4f4f4;stroke-opacity:1" /><path
           d="m 47.62449,199.85989 -0.0243,-0.009 q -0.09285,-0.063 -0.186369,-0.10963 -0.09017,-0.0481 -0.221399,-0.0979 -0.211429,-0.0802 -0.444235,-0.0601 -0.231885,0.0177 -0.470396,0.0968 l -0.73118,1.92715 -0.456879,-0.17334 1.029922,-2.71455 0.456879,0.17335 -0.152137,0.40098 q 0.355168,-0.11545 0.595851,-0.12699 0.244036,-0.0131 0.460325,0.069 0.11908,0.0452 0.169779,0.0728 0.05162,0.0251 0.152095,0.0827 z"
           id="path1836"
           style="fill:#ffffff;fill-opacity:1;stroke:#f4f4f4;stroke-opacity:1" /><path
           d="m 52.24457,200.01007 -1.904755,-0.45019 -0.251103,1.06241 1.636623,0.38682 -0.105224,0.4452 -1.636623,-0.38682 -0.428667,1.81369 -0.500852,-0.11837 0.890218,-3.76651 2.405607,0.56857 z"
           id="path1838"
           style="fill:#ffffff;fill-opacity:1;stroke:#f4f4f4;stroke-opacity:1" /><path
           d="m 54.524858,202.29122 q -0.09659,0.70299 -0.512993,1.06032 -0.416408,0.35732 -1.021546,0.27418 -0.610289,-0.0839 -0.914897,-0.54024 -0.302034,-0.45603 -0.205448,-1.15902 0.09659,-0.70299 0.510418,-1.06068 0.416762,-0.3599 1.02705,-0.27605 0.605139,0.0831 0.909393,0.54211 0.304609,0.45639 0.208023,1.15938 z m -0.499561,-0.0686 q 0.07677,-0.55879 -0.104958,-0.85924 -0.181378,-0.30303 -0.570212,-0.35645 -0.393983,-0.0541 -0.650365,0.18875 -0.253454,0.24067 -0.330227,0.79945 -0.0743,0.54076 0.10602,0.85152 0.18067,0.30818 0.572079,0.36195 0.386258,0.0531 0.642994,-0.19239 0.259665,-0.24768 0.334669,-0.79359 z"
           id="path1840"
           style="fill:#ffffff;fill-opacity:1;stroke:#f4f4f4;stroke-opacity:1" /><path
           d="m 57.010311,201.49024 -0.02596,-0.001 q -0.10776,-0.0313 -0.211094,-0.0468 -0.10061,-0.018 -0.2408,-0.0248 -0.225862,-0.0111 -0.441125,0.0798 -0.215136,0.0883 -0.41763,0.23711 l -0.101218,2.05871 -0.488069,-0.024 0.142573,-2.89986 0.488069,0.024 -0.02106,0.42836 q 0.302252,-0.21936 0.527644,-0.30457 0.228116,-0.0877 0.45917,-0.0763 0.127209,0.006 0.183941,0.0169 0.05686,0.008 0.170194,0.0318 z"
           id="path1842"
           style="fill:#ffffff;fill-opacity:1;stroke:#f4f4f4;stroke-opacity:1" /><path
           d="m 61.634631,199.6827 -1.15504,2.2897 0.157095,1.69002 -0.512442,0.0476 -0.152043,-1.63568 -1.567507,-2.09145 0.566792,-0.0527 1.213575,1.62575 0.903483,-1.82254 z"
           id="path1844"
           style="fill:#ffffff;fill-opacity:1;stroke:#f4f4f4;stroke-opacity:1" /><path
           d="m 64.309453,201.59726 q 0.13173,0.69726 -0.149601,1.16836 -0.28133,0.47109 -0.881536,0.58448 -0.605313,0.11436 -1.039122,-0.22163 -0.431254,-0.33647 -0.562984,-1.03373 -0.13173,-0.69726 0.147046,-1.16787 0.280848,-0.47365 0.886162,-0.58801 0.600206,-0.11339 1.034497,0.22515 0.433808,0.33599 0.565538,1.03325 z m -0.495489,0.0936 q -0.104708,-0.55423 -0.372469,-0.7814 -0.268244,-0.22971 -0.653908,-0.15685 -0.390772,0.0738 -0.55672,0.38557 -0.163876,0.30871 -0.05917,0.86294 0.10133,0.53636 0.371021,0.77374 0.269209,0.23482 0.657427,0.16148 0.38311,-0.0724 0.548576,-0.38668 0.167537,-0.31734 0.06524,-0.8588 z"
           id="path1846"
           style="fill:#ffffff;fill-opacity:1;stroke:#f4f4f4;stroke-opacity:1" /><path
           d="m 67.626124,202.1689 -0.469427,0.13575 -0.08953,-0.30962 q -0.183058,0.25586 -0.371411,0.41855 -0.188353,0.1627 -0.450533,0.23851 -0.439463,0.12708 -0.761422,-0.0693 -0.322681,-0.19891 -0.472864,-0.71828 l -0.523474,-1.81029 0.469426,-0.13574 0.459214,1.58806 q 0.06137,0.21224 0.125392,0.35878 0.0633,0.14404 0.159266,0.23263 0.09919,0.0904 0.220997,0.10927 0.121809,0.0189 0.326559,-0.0403 0.182277,-0.0527 0.369578,-0.20969 0.189797,-0.1577 0.334468,-0.35917 l -0.602176,-2.08246 0.469426,-0.13574 z"
           id="path1848"
           style="fill:#ffffff;fill-opacity:1;stroke:#f4f4f4;stroke-opacity:1" /><path
           d="m 69.402475,198.99142 -0.02435,0.009 q -0.111372,0.0138 -0.212426,0.0403 -0.09953,0.0232 -0.231047,0.0722 -0.211895,0.079 -0.373772,0.2475 -0.162786,0.16608 -0.290078,0.38273 l 0.719878,1.93141 -0.457888,0.17066 -1.014002,-2.72053 0.457888,-0.17066 0.149785,0.40187 q 0.191083,-0.32088 0.364518,-0.48816 0.174963,-0.17062 0.391729,-0.25141 0.119343,-0.0445 0.175649,-0.0572 0.0554,-0.0151 0.168918,-0.038 z"
           id="path1850"
           style="fill:#ffffff;fill-opacity:1;stroke:#f4f4f4;stroke-opacity:1" /><path
           d="m 73.077957,196.09295 -1.749465,0.87757 0.489484,0.9758 1.503192,-0.75404 0.205117,0.40891 -1.503192,0.75403 0.835619,1.66583 -0.460018,0.23076 -1.735337,-3.45944 2.209483,-1.10833 z"
           id="path1852"
           style="fill:#ffffff;fill-opacity:1;stroke:#f4f4f4;stroke-opacity:1" /><path
           d="m 77.158922,197.64878 -0.421035,0.24802 -0.163592,-0.2777 q -0.11381,0.2933 -0.25588,0.49766 -0.142069,0.20435 -0.377221,0.34288 -0.394161,0.23219 -0.7548,0.12185 -0.361959,-0.11258 -0.63637,-0.5784 l -0.956483,-1.62368 0.421035,-0.24802 0.839066,1.42435 q 0.11214,0.19036 0.210532,0.31642 0.09707,0.12382 0.212032,0.18582 0.118516,0.0629 0.241202,0.051 0.122687,-0.0119 0.306329,-0.12012 0.163487,-0.0963 0.305956,-0.29487 0.144707,-0.19988 0.234836,-0.43096 l -1.100285,-1.86778 0.421035,-0.24803 z"
           id="path1854"
           style="fill:#ffffff;fill-opacity:1;stroke:#f4f4f4;stroke-opacity:1" /><path
           d="m 79.2081,196.2706 q -0.09484,0.10634 -0.218522,0.21617 -0.121517,0.10841 -0.227753,0.17866 -0.370741,0.24516 -0.695602,0.1733 -0.32486,-0.0719 -0.615904,-0.51198 l -0.851625,-1.28784 -0.275346,0.18208 -0.226527,-0.34255 0.275346,-0.18208 -0.460222,-0.69596 0.407599,-0.26954 0.460221,0.69596 0.841214,-0.55628 0.226527,0.34255 -0.841214,0.55628 0.72976,1.10355 q 0.126167,0.19079 0.206525,0.29346 0.07892,0.1005 0.192608,0.15932 0.105046,0.0552 0.214673,0.0419 0.110362,-0.0169 0.28164,-0.13016 0.09973,-0.0659 0.189497,-0.16582 0.08833,-0.10204 0.123126,-0.15309 l 0.02168,-0.0143 z"
           id="path1856"
           style="fill:#ffffff;fill-opacity:1;stroke:#f4f4f4;stroke-opacity:1" /><path
           d="m 81.6528,194.53917 -0.394548,0.2883 -0.190158,-0.26023 q -0.08436,0.30308 -0.2056,0.52044 -0.121242,0.21737 -0.341601,0.37839 -0.369364,0.2699 -0.73912,0.19563 -0.37129,-0.0764 -0.690265,-0.51289 l -1.111811,-1.52153 0.394548,-0.2883 0.975327,1.33475 q 0.13035,0.17838 0.240684,0.29413 0.108802,0.11365 0.229309,0.16402 0.124139,0.0509 0.245052,0.027 0.120913,-0.024 0.293003,-0.14972 0.153202,-0.11195 0.275412,-0.32358 0.12431,-0.21316 0.191231,-0.452 l -1.278966,-1.75028 0.394548,-0.28831 z"
           id="path1858"
           style="fill:#ffffff;fill-opacity:1;stroke:#f4f4f4;stroke-opacity:1" /><path
           d="m 82.341598,190.96069 -0.02029,0.0162 q -0.101465,0.0479 -0.189124,0.10481 -0.08726,0.0532 -0.196824,0.14093 -0.176526,0.14134 -0.277522,0.35206 -0.10262,0.20869 -0.155702,0.4543 l 1.288251,1.60902 -0.38146,0.30542 -1.814597,-2.26644 0.38146,-0.30541 0.268047,0.33479 q 0.08104,-0.36456 0.193405,-0.57772 0.112766,-0.21681 0.29335,-0.3614 0.09942,-0.0796 0.148936,-0.10925 0.04789,-0.0317 0.148537,-0.089 z"
           id="path1860"
           style="fill:#ffffff;fill-opacity:1;stroke:#f4f4f4;stroke-opacity:1" /><path
           d="m 85.095596,189.86536 -1.617347,1.4001 q 0.175226,0.20241 0.36714,0.301 0.190214,0.0966 0.379693,0.10104 0.183848,0.006 0.364206,-0.0678 0.182322,-0.0753 0.351328,-0.22162 0.224031,-0.19394 0.373472,-0.47802 0.149705,-0.28774 0.171146,-0.45756 l 0.01965,-0.017 0.348749,0.40287 q -0.118643,0.24022 -0.267264,0.4617 -0.14862,0.22148 -0.362825,0.40691 -0.546321,0.47294 -1.108073,0.44355 -0.563452,-0.0314 -1.03469,-0.5757 -0.466133,-0.53846 -0.447217,-1.10834 0.02088,-0.57158 0.500386,-0.98668 0.444132,-0.38447 0.908445,-0.33262 0.466278,0.0502 0.879674,0.5277 z m -0.604604,0.0283 q -0.253746,-0.28914 -0.536968,-0.32243 -0.281257,-0.035 -0.576035,0.22019 -0.296742,0.25688 -0.322201,0.5849 -0.02349,0.3263 0.177486,0.60612 z"
           id="path1862"
           style="fill:#ffffff;fill-opacity:1;stroke:#f4f4f4;stroke-opacity:1" /></g></g></g></svg>
